<?xml version="1.0" encoding="UTF-8"?>
<svg id="_Слой_1" data-name="Слой 1" xmlns="http://www.w3.org/2000/svg" version="1.1" viewBox="0 0 500 500">
  <defs>
    <style>
      .cls-1 {
        fill: #2f2f2f;
      }

      .cls-1, .cls-2 {
        stroke: #fff;
        stroke-miterlimit: 10;
        stroke-width: 2px;
      }

      .cls-2 {
        fill: #bc3131;
      }
    </style>
  </defs>
  <g>
    <path class="cls-1" d="M91.8,393.2c5.9,19.8,12.9,39.2,22.7,57.5-14-8.6-27-18.7-39-29.8-13.3-14.1-24.4-30.6-33.1-47.9,16.4,7.1,32.9,13.8,49.5,20.2Z"/>
    <path class="cls-1" d="M234,338.9c-20.5,26.5-38.6,54-53.5,84,16.8,4.3,33.5,7.7,50.6,10.4,1,18.9,2.7,37.6,5.2,56.4-40.7-3.4-77.3-14.5-113.2-33.9-10.5-23-18.1-46.1-23.8-70.7,12.4-33,30.2-62.6,50.7-91.2-19-6.6-38.2-12.5-57.8-16.7,2.1-24.9,6-49.1,11.7-73.4,50.6,10.1,96.2,34.3,143,55.1-5.6,26.5-9.9,53-13,79.9Z"/>
    <path class="cls-1" d="M321,289.8c-13.7,64.6-21.6,129.9-22,196-17.4,2.9-34.4,4.3-52,4.4-8.6-75.7-3.3-151.2,12.2-225.7,20.4,8.8,41,17.4,61.8,25.4Z"/>
    <path class="cls-1" d="M309.5,483.5c2.4-63.7,11-126.6,24.4-188.9,47.3,16.6,94.9,28.8,145.1,31.9-11.9,26.1-26.1,50.4-42.5,74-9.8,8-19.3,16.3-28.3,25.1-14.4,7.3-29.6,13.2-45.1,18-2.5,9.6-3.7,14.3-6,23.4-15.2,7.2-31.3,12.5-47.7,16.4ZM385.5,357c-4.7,18-9.4,35.9-14,53.9,5.5-.7,8.2-1.2,13.7-2.1,5.2-16.9,10.4-33.8,15.4-50.7-6-.3-9.1-.6-15.1-1.1Z"/>
  </g>
  <g>
    <path class="cls-2" d="M13.7,196.1c14.6-46.8,38.1-87.8,70.1-124.9,20.7-17.2,41.9-30.5,66.4-41.6-2.8,13.3-5.5,26.6-8.2,40-15.2,3.1-30.2,7.8-44.7,13.4-2.8,6.5-4.1,9.8-6.8,16.6,15.5-4.7,31.3-8.4,47.4-10.4-2.6,12.6-5.1,25.2-7.7,37.8-17.4.4-34.2,1.9-51.4,4.7-6.5,19.6-12.2,39.4-17.2,59.4-16,.1-32,2-47.8,5Z"/>
    <path class="cls-2" d="M125,198.1c11.9-56.9,22.5-114,32.1-171.3,26.1-9.4,51.4-14.6,79-16.7,1.8,18.1,2.9,36.2,3.3,54.4-16-1.2-32.1-1.4-48.2-.8-.5,9.2-.9,13.8-1.7,23.4,16.6.6,33.2,1.9,49.7,4.1-.4,17.2-1.6,34.4-3.2,51.5-17.1-3.9-34.2-7.4-51.4-10.5-1.3,10.1-2,15.2-3.6,25.5,17.2,4.4,34.3,9.2,51.4,14.2-3.2,21.5-7.2,42.7-11.9,63.9-31.4-14-62.3-28.6-95.6-37.5Z"/>
    <path class="cls-2" d="M244.3,64.8c2.8-18.3,4.8-36.5,5.9-55,14.7.4,29,1.7,43.5,4,19.2,83.4,14.3,168.4-6.7,251-15.8-6.7-31.4-13.6-47.1-20.5,13.6-58.7,20.2-117.7,18.5-178-5.7-.7-8.5-.9-14.1-1.4Z"/>
    <path class="cls-2" d="M308.5,74.8c.9-19.5.9-38.9-1.5-58.3,13.8,3.5,27,7.8,40.2,12.9,32.8,84.5,31.5,175,7.4,261.5-16.2-5.5-32.1-11.7-48-18,16.8-64.1,22.8-128.9,15.5-194.8-5.5-1.4-8.2-2-13.7-3.3Z"/>
    <path class="cls-2" d="M381.6,158.9c6.9-6.8,10.2-10.2,16.1-16.7-7.5-7.1-11.3-10.6-18.8-17.6-4.6-32-12.4-62.4-24.8-92.3,11.8,5.3,23.2,11.5,34,18.4,16.3,28.3,27.2,57.6,34.3,89.5,4,1.5,6,2.3,10,3.8-7.8-31.7-19.5-60.6-36.8-88.3,10.5,7.3,20.4,15.3,29.8,24,22.2,25,38,52.1,49.1,83.6-3.5,6.4-5.7,9.9-10.8,17.2,7.6,6.9,11.4,10.2,18.9,16.8,5.8,41.5,2.4,80.6-9.7,120.6-16.5-1.4-32.9-4.2-49.1-7.6,10.5-35.4,15.7-70.5,15.6-107.4-4.3-1.3-6.4-2-10.8-3.3-.3,37.2-5.7,72.6-16.2,108.2-16.4-3.9-32.6-8.6-48.6-13.9,12.6-44.5,18.6-88.9,17.7-135.2Z"/>
  </g>
</svg>